<svg xmlns="http://www.w3.org/2000/svg" width="35" height="16" viewBox="0 0 35 16">
    <g fill="none" fill-rule="evenodd">
        <g fill="#FFF" fill-rule="nonzero">
            <path d="M476.516 322c.65 0 1.38-.08 2.191-.238.812-.159 1.627-.393 2.445-.704.819-.31 1.57-.697 2.252-1.16.683-.462 1.235-1.004 1.654-1.625.42-.622.629-1.322.629-2.102 0-.304-.071-.618-.213-.942-.142-.324-.379-.638-.71-.942-.332-.304-.778-.571-1.34-.802-.56-.232-1.26-.4-2.1-.506.488-.119.981-.274 1.482-.466.5-.192.96-.436 1.38-.734.419-.297.754-.654 1.004-1.07.25-.417.375-.909.375-1.477 0-.714-.172-1.286-.517-1.715-.345-.43-.781-.754-1.309-.972-.527-.218-1.082-.363-1.664-.436-.581-.073-1.116-.109-1.603-.109-1.109 0-2.056.112-2.84.337-.785.225-1.542.482-2.273.773 0 .093.051.199.153.318.101.118.216.224.345.317.128.092.233.139.314.139.108 0 .264-.06.467-.179s.48-.258.832-.416c.351-.159.798-.298 1.339-.417-.352.674-.707 1.434-1.066 2.28-.358.846-.703 1.709-1.034 2.588-.332.879-.633 1.715-.903 2.508-.27.793-.504 1.48-.7 2.062-.196.581-.335.998-.416 1.249-.095.264-.166.492-.213.684-.048.192-.071.347-.071.466 0 .304.149.562.446.773.298.212.65.317 1.055.317.311-1.03.609-2.082.893-3.152.284-1.07.575-2.108.872-3.113.23 0 .474-.003.73-.01.258-.006.515-.01.772-.01.595 0 1.2.027 1.816.08.615.052 1.183.161 1.704.327.521.165.94.403 1.258.713.318.311.477.724.477 1.24 0 .568-.203 1.113-.609 1.635-.406.522-.977.992-1.714 1.408-.737.416-1.606.747-2.607.991-1.001.245-2.097.367-3.287.367-.704 0-1.18-.03-1.43-.09-.251-.059-.437-.088-.559-.088-.149 0-.223.066-.223.198.014.608.23 1.044.65 1.308.419.265 1.04.397 1.866.397zm1.36-9.22c.338-1.096.696-2.164 1.075-3.201.378-1.038.798-2 1.258-2.885h.08c.65 0 1.259.066 1.827.198.568.132 1.028.37 1.38.714.351.344.527.833.527 1.467 0 .674-.176 1.24-.527 1.695-.352.456-.822.826-1.41 1.11-.589.285-1.248.5-1.979.645-.73.145-1.474.231-2.232.258zm10.834 8.367c.73 0 1.444-.165 2.14-.495.697-.33 1.333-.793 1.908-1.388.575-.595 1.045-1.289 1.41-2.082l-.406-.317c-.338.634-.76 1.21-1.268 1.725-.507.515-1.048.928-1.623 1.239-.575.31-1.146.466-1.714.466-.38 0-.677-.066-.893-.198-.217-.133-.372-.291-.467-.476-.095-.185-.152-.36-.172-.526-.02-.165-.03-.28-.03-.347 0-.132.003-.228.01-.287.006-.06.016-.116.03-.169.608-.066 1.214-.208 1.816-.426.602-.218 1.153-.499 1.653-.842.5-.344.9-.734 1.197-1.17.298-.436.447-.906.447-1.408 0-.529-.16-.882-.477-1.06-.318-.18-.653-.268-1.004-.268-.623 0-1.245.178-1.867.535-.622.357-1.19.823-1.704 1.398s-.924 1.19-1.228 1.844c-.304.654-.456 1.272-.456 1.853 0 .688.233 1.26.7 1.715.466.456 1.132.684 1.998.684zm-.852-3.588c.149-.41.352-.826.609-1.25.257-.422.547-.809.872-1.16.325-.35.656-.634.994-.852.338-.218.663-.327.974-.327.122 0 .21.027.264.08.054.052.081.152.081.297 0 .37-.128.737-.385 1.1-.257.364-.585.698-.984 1.002-.4.304-.815.555-1.248.753-.433.198-.825.317-1.177.357zm7.264 3.628c.649 0 1.278-.182 1.887-.545.608-.364 1.173-.863 1.694-1.497.52-.634.957-1.342 1.309-2.121l-.284-.199c-.528 1.031-1.147 1.847-1.857 2.449-.71.601-1.403.902-2.08.902-.378 0-.656-.112-.832-.337-.175-.225-.263-.608-.263-1.15 0-.648.104-1.312.314-1.993.21-.68.457-1.344.74-1.992h.244c.568-.013 1.163-.04 1.786-.08.622-.04 1.305-.092 2.049-.158v-.654c-.5.053-.99.089-1.471.109-.48.02-1.018.03-1.613.03h-.63c.38-.74.772-1.438 1.178-2.092.406-.655.747-1.226 1.024-1.715.278-.49.416-.866.416-1.13 0-.185-.06-.328-.182-.427-.122-.099-.25-.148-.386-.148-.23 0-.494.148-.791.446-.298.297-.612.704-.944 1.22-.331.515-.662 1.1-.994 1.754-.331.654-.639 1.331-.923 2.032l-.436-.04c-.142-.013-.321-.033-.538-.06v.615c.122.053.247.09.375.11.129.02.24.042.335.069-.324.859-.592 1.692-.801 2.498-.21.806-.315 1.48-.315 2.022 0 .7.183 1.223.548 1.567.365.343.846.515 1.44.515zm5.133.02c.514 0 .998-.185 1.45-.555.454-.37.951-.873 1.492-1.507v.1c.027.396.176.766.446 1.11.271.343.684.515 1.238.515.514 0 1.021-.155 1.522-.466.5-.31.977-.74 1.43-1.289.453-.548.842-1.18 1.167-1.893l-.386-.377c-.608 1.124-1.207 1.92-1.795 2.39-.589.468-1.045.703-1.37.703-.216 0-.372-.076-.466-.228-.095-.152-.142-.314-.142-.486 0-.224.057-.459.172-.704.115-.244.25-.489.406-.733.155-.245.29-.47.406-.674.115-.205.172-.374.172-.506 0-.145-.068-.264-.203-.357-.135-.092-.28-.162-.436-.208-.156-.046-.26-.076-.315-.09-.067 0-.121.034-.162.1-.257.33-.561.73-.913 1.2-.352.469-.72.928-1.106 1.377-.385.45-.767.823-1.146 1.12-.379.298-.724.447-1.035.447-.311 0-.467-.212-.467-.635 0-.37.082-.786.244-1.249.162-.462.385-.935.67-1.417.284-.483.605-.926.963-1.329.359-.403.734-.73 1.126-.981.393-.251.778-.377 1.157-.377.352 0 .582.106.69.317.108.212.162.45.162.714 0 .132-.01.258-.03.377-.02.119-.044.238-.071.357.351.066.656.02.913-.139s.385-.416.385-.773c0-.476-.203-.86-.609-1.15-.405-.291-.899-.436-1.48-.436-.555 0-1.11.132-1.664.396-.555.264-1.076.611-1.563 1.041-.487.43-.92.909-1.298 1.437-.379.53-.677 1.064-.893 1.606-.216.542-.325 1.045-.325 1.507 0 .582.166 1.018.497 1.309.332.29.72.436 1.167.436z" transform="translate(-474 -306)"/>
        </g>
    </g>
</svg>
