<svg xmlns="http://www.w3.org/2000/svg" width="18" height="18" viewBox="0 0 18 18">
    <g fill="none" fill-rule="evenodd">
        <g>
            <g transform="translate(-1164 -258) translate(1164 258)">
                <circle cx="9" cy="9" r="9" fill="#E65C5C"/>
                <path fill="#FFF" fill-rule="nonzero" d="M8.213 6.348L8.165 5H9.6l-.048 1.348-.204 3.578h-.931l-.204-3.578zm.67 6.157c-.253 0-.463-.088-.63-.266-.169-.178-.253-.4-.253-.664 0-.266.084-.487.252-.665.168-.177.378-.266.63-.266.253 0 .464.089.636.266.17.178.257.4.257.665s-.086.486-.257.664c-.172.178-.383.266-.636.266z"/>
            </g>
        </g>
    </g>
</svg>
