<svg xmlns="http://www.w3.org/2000/svg" width="32" height="32" viewBox="0 0 32 32">
    <g fill="none" fill-rule="evenodd">
        <g>
            <g>
                <g transform="translate(-1224 -2846) translate(1224 2846)">
                    <circle cx="16" cy="16" r="16" fill="#B39C7D"/>
                    <path fill="#6F6558" fill-rule="nonzero" d="M15.769 13.547l.035.577-.578-.071c-2.105-.27-3.943-1.189-5.503-2.73l-.763-.766-.197.565c-.416 1.26-.15 2.59.717 3.484.462.494.358.565-.44.27-.277-.093-.52-.164-.543-.129-.08.083.197 1.154.416 1.577.3.589.914 1.166 1.584 1.507l.567.27-.67.012c-.648 0-.671.012-.602.26.231.764 1.144 1.576 2.162 1.93l.717.247-.625.376c-.925.542-2.011.848-3.098.871-.52.012-.948.06-.948.094 0 .118 1.41.777 2.231 1.036 2.463.765 5.388.436 7.584-.87 1.56-.93 3.122-2.778 3.85-4.567.393-.954.786-2.696.786-3.531 0-.542.035-.612.682-1.26.382-.376.74-.788.81-.906.115-.223.104-.223-.486-.023-.983.353-1.122.306-.636-.224.358-.377.786-1.06.786-1.26 0-.035-.173.024-.37.13-.208.118-.67.294-1.017.4l-.624.2-.567-.388c-.312-.212-.751-.447-.983-.518-.59-.165-1.49-.141-2.023.047-1.445.53-2.358 1.895-2.254 3.39z"/>
                </g>
            </g>
        </g>
    </g>
</svg>
