<svg xmlns="http://www.w3.org/2000/svg" width="32" height="32" viewBox="0 0 32 32">
    <g fill="none" fill-rule="evenodd">
        <g>
            <g transform="translate(-1140 -2846) translate(1140 2846)">
                <circle cx="16" cy="16" r="16" fill="#B39C7D"/>
                <path fill="#6F6558" fill-rule="nonzero" d="M13.916 7c2.639 0 4.86.947 6.37 2.537l2.245 2.233C24.222 13.46 25 15.355 25 17.79c0 4.736-3.439 8.029-8.366 8.029h-4.826L9 23.01V7h4.916zm.756 16.079c-.248.011-.497.022-.756.022h-.011l2.402 2.402h.327c.157 0 .304 0 .45-.011l-2.412-2.413zM9.71 23.1h-.169l2.402 2.402h.158l-2.39-2.402zm.361 0h-.203l2.402 2.402h.203l-2.402-2.402zm.417 0h-.259l2.402 2.402h.26l-2.403-2.402zm.485 0h-.327l2.402 2.402h.327l-2.402-2.402zm.553 0h-.395l2.402 2.402h.394l-2.401-2.402zm.631 0h-.473l2.401 2.402h.474l-2.402-2.402zm.744 0h-.575l2.402 2.402h.575l-2.402-2.402zm.835 0h-.677l2.402 2.402h.688l-2.413-2.402zm1.917-.146c-.271.056-.553.09-.835.113l2.424 2.413c.294-.012.575-.045.857-.08l-2.446-2.446zm1.06-.226c-.294.08-.598.147-.914.203l2.447 2.447c.316-.056.62-.124.913-.203l-2.447-2.447zm1.06-.394c-.305.135-.62.26-.948.35l2.458 2.457c.327-.09.654-.214.959-.338l-2.47-2.47zm1.093-.575c-.304.203-.631.372-.98.53l2.468 2.469c.339-.158.666-.338.981-.53l-2.469-2.47zm1.094-.835c-.305.282-.632.542-.992.767l2.469 2.47c.35-.237.676-.497.98-.779l-2.457-2.458zm1.037-1.172c-.282.394-.597.766-.958 1.093l2.458 2.458c.35-.338.654-.721.924-1.127l-2.424-2.424zm.868-1.67c-.214.565-.484 1.095-.811 1.568l2.435 2.436c.316-.496.575-1.038.767-1.613l-2.39-2.39zM11.627 10.27v.552l2.278 2.267-.09.079-2.188-2.176v.563l1.894 1.906-.078.09-1.816-1.827v.576l1.522 1.533-.079.09-1.443-1.454v.575l1.15 1.161-.079.09-1.07-1.082v.586l.777.778-.09.09-.688-.699v.575l.406.406-.09.09-.316-.315v5.908h2.402v-8.006l-2.402-2.356zm5.007 1.86h-2.29v8.49c3.282-.18 5.402-2.333 5.402-5.547 0-.834-.147-1.6-.418-2.277-.687-.474-1.477-.666-2.694-.666zm5.739 3.563c-.057.812-.214 1.568-.462 2.278l2.39 2.39c.225-.732.36-1.522.383-2.356l-2.311-2.312zm-.981-4.634c.609 1.139 1.003 2.548 1.003 4.014 0 .158 0 .316-.01.463l2.3 2.311v-.056c0-2.357-.767-4.138-2.38-5.796l-.913-.936zM11.66 9.526h-.034v.563l2.402 2.38v-.575L11.66 9.526zm4.927.518l2.098 2.098c.146.067.304.135.44.203L17.05 10.27c-.147-.079-.305-.158-.463-.226zm-.778-.27l2.177 2.176c.157.034.304.068.45.113l-2.13-2.131c-.158-.057-.327-.113-.497-.158zm1.635.733l1.5 1.5c-.383-.598-.89-1.106-1.5-1.5zM15 9.605l2.232 2.232c.192.011.384.045.553.068l-2.188-2.188c-.191-.045-.394-.079-.597-.112zm-.891-.08l2.289 2.29h.237c.146 0 .293 0 .428.01l-2.244-2.243c-.237-.034-.462-.045-.71-.056zm-1.962 0h-.327l2.289 2.29h.327l-2.29-2.29zm.8 0h-.642l2.289 2.29h.642l-2.289-2.29zm1.004 0h-.846l2.29 2.29h.845l-2.289-2.29z"/>
            </g>
        </g>
    </g>
</svg>
