<svg xmlns="http://www.w3.org/2000/svg" width="34" height="34" viewBox="0 0 34 34">
    <g fill="none" fill-rule="evenodd">
        <g>
            <g>
                <path fill="#FFD900" d="M33.966 16.983c0 9.379-7.603 16.98-16.982 16.98C7.606 33.963 0 26.362 0 16.983 0 7.603 7.606 0 16.984 0c9.379 0 16.982 7.604 16.982 16.983" transform="translate(-241 -1796) translate(241 1796)"/>
                <path stroke="#1D1D1B" stroke-width="2.5" d="M23.448 16.265c0 3.95-3.203 7.152-7.152 7.152-3.95 0-7.152-3.202-7.152-7.152 0-3.949 3.202-7.151 7.152-7.151s7.152 3.202 7.152 7.151zM21.333 21.331L25.46 25.458" transform="translate(-241 -1796) translate(241 1796)"/>
            </g>
        </g>
    </g>
</svg>
