<svg xmlns="http://www.w3.org/2000/svg" xmlns:xlink="http://www.w3.org/1999/xlink" width="36" height="36" viewBox="0 0 36 36">
    <defs>
        <filter id="c2jygz23fa" width="121.9%" height="121.9%" x="-10.9%" y="-7.8%" filterUnits="objectBoundingBox">
            <feOffset dy="1" in="SourceAlpha" result="shadowOffsetOuter1"/>
            <feGaussianBlur in="shadowOffsetOuter1" result="shadowBlurOuter1" stdDeviation="1"/>
            <feColorMatrix in="shadowBlurOuter1" values="0 0 0 0 0 0 0 0 0 0 0 0 0 0 0 0 0 0 0.1 0"/>
        </filter>
        <circle id="lky2iv025b" cx="16" cy="16" r="16"/>
    </defs>
    <g fill="none" fill-rule="evenodd">
        <g>
            <g>
                <g transform="translate(-788 -1295) translate(790 1296)">
                    <use fill="#000" filter="url(#c2jygz23fa)" xlink:href="#lky2iv025b"/>
                    <use fill="#FFF" xlink:href="#lky2iv025b"/>
                </g>
                <path fill="#B39C7D" fill-rule="nonzero" d="M16.32 18.39c-.021-.48.032-.87.16-1.169.128-.299.29-.552.488-.76.197-.208.413-.397.648-.568.235-.17.456-.37.664-.6.208-.23.381-.515.52-.856.139-.341.208-.79.208-1.344 0-.48-.085-.907-.256-1.28-.17-.373-.405-.69-.704-.952-.299-.261-.653-.464-1.064-.608-.41-.144-.85-.227-1.32-.248-.395-.021-.8.024-1.216.136-.416.112-.797.312-1.144.6-.347.288-.64.672-.88 1.152-.24.48-.381 1.072-.424 1.776h2c.043-.64.208-1.115.496-1.424.288-.31.656-.464 1.104-.464.448 0 .773.141.976.424.203.283.304.632.304 1.048 0 .33-.064.608-.192.832-.128.224-.285.427-.472.608s-.387.368-.6.56c-.213.192-.408.421-.584.688-.176.267-.317.595-.424.984-.107.39-.139.877-.096 1.464h1.808zm-.896 4.223c.427 0 .779-.147 1.056-.44.277-.293.416-.659.416-1.096 0-.437-.139-.803-.416-1.096-.277-.293-.63-.44-1.056-.44-.416 0-.763.147-1.04.44-.277.293-.416.659-.416 1.096 0 .437.139.803.416 1.096.277.293.624.44 1.04.44z" transform="translate(-788 -1295) translate(790 1296)"/>
            </g>
        </g>
    </g>
</svg>
