<svg xmlns="http://www.w3.org/2000/svg" width="78" height="22" viewBox="0 0 78 22">
    <g fill="none" fill-rule="evenodd">
        <g fill-rule="nonzero">
            <g>
                <g fill="#403F41">
                    <path d="M10.202 4.57c.035-1.199-.479-2.348-1.396-3.121-1.018-.825-2.3-1.252-3.61-1.2H.344v2.165h4.853c.667-.022 1.318.204 1.828.635.48.405.751 1.005.736 1.633.017.62-.251 1.213-.729 1.608-.517.416-1.167.631-1.83.607H2.814V3.62H.348v5.435H5.2c1.316.044 2.6-.414 3.592-1.281.918-.81 1.434-1.981 1.41-3.205zM13.193 4.57c-.023 1.224.495 2.396 1.417 3.201.991.868 2.275 1.326 3.592 1.281h4.26V6.9h-4.26c-.662.023-1.31-.195-1.823-.613-.476-.394-.745-.985-.73-1.602-.016-.627.253-1.227.73-1.634.508-.432 1.159-.658 1.825-.634h4.26V.252h-4.26c-1.31-.052-2.594.375-3.613 1.2-.918.77-1.433 1.92-1.398 3.118zM44.362.252h-2.468V5.43L36.55.626c-.26-.256-.619-.388-.983-.362-.296-.019-.586.09-.795.3-.189.21-.288.484-.276.764v7.728h2.469V3.889l5.342 4.804c.287.291.684.446 1.092.427.65 0 .965-.374.965-1.138V.252h-.003zM55 .252L45.278.252 45.278 2.417 48.906 2.417 48.906 9.056 51.375 9.056 51.375 2.417 55 2.417z" transform="translate(-75 -175) translate(75 175) translate(22.846 6.346)"/>
                </g>
                <path fill="#403F41" d="M53.397 8.764L55.432 6.598 46.613 6.598 46.613 15.402 55.003 15.402 55.003 13.244 49.082 13.244 49.082 12.018 55.003 12.018 55.003 9.955 49.082 9.955 49.082 8.764zM35.25 8.538L34.106 8.538 33.243 6.211 36.111 6.211z" transform="translate(-75 -175) translate(75 175)"/>
                <g>
                    <path fill="#B3B5B6" d="M9.911 4.154L11.55 3.208 11.55 0.946 9.911 0z" transform="translate(-75 -175) translate(75 175)"/>
                    <path fill="#77C7C4" d="M3.876 13.998v-6.36l5.478-3.162V0L.278 5.24c-.172.1-.278.284-.278.483v10.48l.003.032 3.873-2.237z" transform="translate(-75 -175) translate(75 175)"/>
                    <path fill="#6C6E70" d="M15.114 14.443l-5.481 3.168-5.45-3.15-3.877 2.24 9.048 5.225c.173.099.385.099.557 0l9.076-5.24.007-.003-3.88-2.24z" transform="translate(-75 -175) translate(75 175)"/>
                    <path fill="#B3B5B6" d="M18.987 5.24l-3.596-2.075v2.258l-3.868 2.233 3.866 2.23v4.071l3.876 2.237V5.723c-.002-.198-.107-.381-.278-.483z" transform="translate(-75 -175) translate(75 175)"/>
                    <path fill="#6C6E70" d="M7.712 9.853L7.715 14.286 11.476 12.114 11.476 7.681z" transform="translate(-75 -175) translate(75 175)"/>
                </g>
            </g>
        </g>
    </g>
</svg>
