<svg xmlns="http://www.w3.org/2000/svg" width="18" height="18" viewBox="0 0 18 18">
    <path fill="#B39C7D" fill-rule="evenodd" d="M7.011 0c3.874 0 7.013 3.131 7.013 6.994 0 1.47-.458 2.835-1.236 3.962l4.805 4.806c.504.505.556 1.337.064 1.853l-.024.025c-.043.043-.09.083-.14.12-.518.388-1.254.287-1.712-.17l-4.819-4.82a6.989 6.989 0 0 1-3.95 1.218C3.14 13.988 0 10.857 0 6.994S3.14 0 7.011 0zM7.01 1.543c-3.036 0-5.496 2.453-5.496 5.48 0 3.027 2.46 5.48 5.496 5.48 3.034 0 5.495-2.453 5.495-5.48 0-3.027-2.46-5.48-5.495-5.48z"/>
</svg>
