<svg xmlns="http://www.w3.org/2000/svg" width="142" height="42" viewBox="0 0 142 42">
    <g fill="none" fill-rule="evenodd">
        <g>
            <g>
                <path fill="#FAF6F0" stroke="#FF9632" d="M0 0H140V40H0z" transform="translate(-319 -525) translate(320 526)"/>
                <path fill="#C1C5CC" d="M119.1 13c1.16 0 2.1.94 2.1 2.1v.699l.7.001c1.16 0 2.1.94 2.1 2.1v7c0 1.16-.94 2.1-2.1 2.1h-7c-1.16 0-2.1-.94-2.1-2.1l-.001-.7h-.699c-1.16 0-2.1-.94-2.1-2.1v-7c0-1.16.94-2.1 2.1-2.1h7zm2.8 3.85h-7c-.58 0-1.05.47-1.05 1.05v7c0 .58.47 1.05 1.05 1.05h7c.58 0 1.05-.47 1.05-1.05v-7c0-.58-.47-1.05-1.05-1.05z" transform="translate(-319 -525) translate(320 526)"/>
                <g fill-rule="nonzero">
                    <path fill="#E66D16" d="M6.482 10.668V9.114H4.676V.196H3.024L0 2.8l1.106 1.26 1.708-1.554-.056.91v5.698H.714v1.554h5.768zm8.638 0V8.904h-3.36c-.159 0-.324.007-.497.021-.173.014-.352.044-.539.091l2.17-2.184c.261-.27.516-.55.763-.84.247-.29.469-.588.665-.896.196-.308.357-.632.483-.973.126-.34.194-.693.203-1.057 0-.448-.082-.859-.245-1.232-.163-.373-.39-.693-.679-.959-.29-.266-.637-.474-1.043-.623-.406-.15-.852-.224-1.337-.224-.961 0-1.769.257-2.422.77-.653.513-1.06 1.307-1.218 2.38l1.834.308c.01-.14.021-.266.035-.378.014-.112.04-.22.077-.322.112-.308.303-.576.574-.805.27-.229.602-.343.994-.343.457 0 .819.124 1.085.371s.399.614.399 1.099c0 .541-.154 1.04-.462 1.498-.308.457-.728.952-1.26 1.484L7.826 9.548v1.12h7.294zm4.69.266c.485 0 .952-.07 1.4-.21.448-.14.84-.348 1.176-.623.336-.275.607-.618.812-1.029.205-.41.313-.882.322-1.414 0-.616-.138-1.127-.413-1.533-.275-.406-.721-.726-1.337-.959.439-.215.81-.506 1.113-.875.303-.369.455-.852.455-1.449.01-.392-.06-.756-.21-1.092-.15-.336-.366-.63-.651-.882-.285-.252-.628-.453-1.029-.602-.401-.15-.845-.229-1.33-.238-.99 0-1.804.257-2.443.77-.64.513-1.062 1.297-1.267 2.352.308.047.614.1.917.161.303.06.604.114.903.161.037-.233.089-.453.154-.658.121-.336.317-.609.588-.819.27-.21.616-.315 1.036-.315.457 0 .814.119 1.071.357s.38.6.371 1.085c0 .224-.033.427-.098.609s-.182.34-.35.476c-.168.135-.401.24-.7.315-.299.075-.677.117-1.134.126v1.4c.541 0 .975.04 1.302.119.327.08.574.191.742.336.168.145.278.32.329.525.051.205.077.43.077.672 0 .196-.037.387-.112.574-.075.187-.189.352-.343.497-.154.145-.345.261-.574.35-.229.089-.497.133-.805.133-.243 0-.455-.042-.637-.126-.182-.084-.345-.189-.49-.315-.145-.126-.27-.266-.378-.42-.107-.154-.208-.329-.301-.525s-.159-.364-.196-.504l-1.708.672c.14.457.315.866.525 1.225.21.36.462.663.756.91s.644.436 1.05.567c.406.13.875.196 1.407.196z" transform="translate(-319 -525) translate(320 526) translate(17.316 15.332)"/>
                    <path fill="#333" d="M30.926 10.668V8.134h1.316V6.552h-1.316V.098H29.12c-.803 1.073-1.608 2.154-2.415 3.241-.807 1.087-1.617 2.163-2.429 3.227v1.568h4.956v2.534h1.694zM29.232 6.58H26.18l3.08-4.144c-.01.187-.016.364-.021.532-.005.168-.007.285-.007.35V6.58zm6.888 4.34c.56 0 1.083-.091 1.568-.273.485-.182.905-.439 1.26-.77s.632-.73.833-1.197c.2-.467.301-.98.301-1.54 0-.457-.075-.887-.224-1.288-.15-.401-.369-.749-.658-1.043-.29-.294-.649-.525-1.078-.693-.43-.168-.924-.252-1.484-.252-.187 0-.38.007-.581.021-.2.014-.408.04-.623.077l.35-2.044h3.934V.196h-5.292c-.14.887-.43 2.632-.868 5.236l1.176.35c.243-.084.492-.154.749-.21.257-.056.516-.093.777-.112.635-.019 1.118.13 1.449.448.331.317.497.756.497 1.316 0 .607-.17 1.097-.511 1.47-.34.373-.828.56-1.463.56-.29 0-.546-.04-.77-.119-.224-.08-.41-.159-.56-.238-.15-.08-.287-.161-.413-.245-.126-.084-.306-.224-.539-.42l-.98 1.428c.177.168.383.327.616.476.233.15.483.282.749.399.266.117.548.21.847.28.299.07.611.105.938.105zm8.736.014c.56 0 1.073-.093 1.54-.28.467-.187.863-.443 1.19-.77.327-.327.581-.707.763-1.141.182-.434.273-.898.273-1.393 0-.532-.089-.999-.266-1.4-.177-.401-.41-.735-.7-1.001-.29-.266-.625-.464-1.008-.595-.383-.13-.775-.196-1.176-.196-.205 0-.406.014-.602.042-.196.028-.373.07-.532.126l-.154.07.21-.21.14-.126c.513-.653 1.024-1.3 1.533-1.939.509-.64 1.024-1.286 1.547-1.939h-2.352l-1.764 2.394-1.078 1.442c-.401.55-.71 1.094-.924 1.631-.215.537-.322 1.043-.322 1.519 0 .56.086 1.073.259 1.54.173.467.418.863.735 1.19.317.327.702.581 1.155.763.453.182.964.273 1.533.273zm-.028-1.582c-.541 0-.978-.168-1.309-.504-.331-.336-.497-.803-.497-1.4 0-.55.163-.994.49-1.33.327-.336.77-.504 1.33-.504.57 0 1.029.156 1.379.469.35.313.525.772.525 1.379 0 .28-.049.537-.147.77-.098.233-.236.434-.413.602-.177.168-.383.296-.616.385-.233.089-.48.133-.742.133zm7.756 1.316l4.242-9.03V.266H49.77v1.722h4.998c-.103.13-.196.29-.28.476-.019.028-.037.06-.056.098-.019.037-.037.07-.056.098-.037.065-.082.15-.133.252-.051.103-.091.177-.119.224-.597 1.232-1.211 2.485-1.841 3.759-.63 1.274-1.244 2.532-1.841 3.773h2.142z" transform="translate(-319 -525) translate(320 526) translate(17.316 15.332)"/>
                    <path fill="#E66D16" d="M61.572 10.934c.55 0 1.055-.072 1.512-.217.457-.145.85-.35 1.176-.616.327-.266.581-.593.763-.98.182-.387.273-.824.273-1.309 0-.597-.142-1.12-.427-1.568-.285-.448-.73-.793-1.337-1.036.457-.233.81-.55 1.057-.952.247-.401.371-.854.371-1.358 0-.43-.084-.821-.252-1.176-.168-.355-.401-.658-.7-.91-.299-.252-.656-.448-1.071-.588-.415-.14-.87-.21-1.365-.21-.485 0-.933.07-1.344.21-.41.14-.763.336-1.057.588-.294.252-.525.555-.693.91-.168.355-.252.747-.252 1.176 0 .495.124.943.371 1.344.247.401.59.723 1.029.966-.607.243-1.052.588-1.337 1.036-.285.448-.427.97-.427 1.568 0 .485.091.922.273 1.309.182.387.436.714.763.98s.716.471 1.169.616c.453.145.954.217 1.505.217zm0-6.412c-.27 0-.502-.049-.693-.147-.191-.098-.345-.224-.462-.378-.117-.154-.203-.327-.259-.518-.056-.191-.084-.376-.084-.553 0-.401.124-.74.371-1.015.247-.275.623-.413 1.127-.413s.884.138 1.141.413c.257.275.385.614.385 1.015 0 .177-.028.362-.084.553-.056.191-.145.364-.266.518-.121.154-.28.28-.476.378-.196.098-.43.147-.7.147zm0 4.872c-.56 0-.994-.147-1.302-.441-.308-.294-.462-.684-.462-1.169 0-.56.159-.992.476-1.295.317-.303.747-.455 1.288-.455s.978.152 1.309.455c.331.303.497.735.497 1.295 0 .485-.161.875-.483 1.169-.322.294-.763.441-1.323.441zm8.19 1.274l2.31-3.514c.168-.261.338-.537.511-.826.173-.29.331-.59.476-.903.145-.313.261-.63.35-.952.089-.322.133-.646.133-.973 0-.513-.082-.985-.245-1.414-.163-.43-.397-.798-.7-1.106-.303-.308-.672-.548-1.106-.721C71.057.086 70.569 0 70.028 0c-.532 0-1.02.091-1.463.273-.443.182-.824.427-1.141.735-.317.308-.565.672-.742 1.092-.177.42-.266.868-.266 1.344 0 .504.084.945.252 1.323.168.378.39.695.665.952s.588.448.938.574c.35.126.712.189 1.085.189.252 0 .492-.019.721-.056.229-.037.446-.117.651-.238l.294-.168-.476.49-3.024 4.158h2.24zm.224-5.684c-.541 0-.957-.138-1.246-.413-.29-.275-.434-.698-.434-1.267 0-.513.152-.931.455-1.253.303-.322.716-.483 1.239-.483.513 0 .931.154 1.253.462.322.308.483.737.483 1.288 0 .495-.15.896-.448 1.204-.299.308-.733.462-1.302.462zm8.218 5.88c.56 0 1.078-.107 1.554-.322.476-.215.889-.544 1.239-.987.35-.443.623-1.003.819-1.68.196-.677.294-1.477.294-2.401 0-.933-.098-1.738-.294-2.415-.196-.677-.469-1.237-.819-1.68-.35-.443-.763-.772-1.239-.987-.476-.215-.994-.322-1.554-.322-.55 0-1.06.107-1.526.322-.467.215-.875.544-1.225.987-.35.443-.623 1.003-.819 1.68-.196.677-.294 1.482-.294 2.415 0 .924.098 1.724.294 2.401.196.677.469 1.237.819 1.68.35.443.758.772 1.225.987.467.215.975.322 1.526.322zm0-1.624c-.243 0-.478-.056-.707-.168-.229-.112-.432-.313-.609-.602-.177-.29-.32-.674-.427-1.155-.107-.48-.161-1.094-.161-1.841 0-.747.054-1.365.161-1.855.107-.49.25-.877.427-1.162.177-.285.38-.485.609-.602.229-.117.464-.175.707-.175.252 0 .497.058.735.175.238.117.446.317.623.602s.32.672.427 1.162c.107.49.161 1.108.161 1.855 0 .747-.054 1.36-.161 1.841-.107.48-.25.866-.427 1.155-.177.29-.385.49-.623.602-.238.112-.483.168-.735.168z" transform="translate(-319 -525) translate(320 526) translate(17.316 15.332)"/>
                </g>
            </g>
        </g>
    </g>
</svg>
