<svg xmlns="http://www.w3.org/2000/svg" width="31" height="14" viewBox="0 0 31 14">
    <g fill="none" fill-rule="evenodd">
        <g fill="#FFF" fill-rule="nonzero">
            <g>
                <path d="M112.201 23c.569 0 1.208-.07 1.918-.208.71-.139 1.423-.344 2.14-.616.715-.272 1.372-.61 1.97-1.015.598-.405 1.08-.879 1.447-1.422.367-.544.55-1.157.55-1.84 0-.265-.062-.54-.186-.823-.125-.284-.332-.558-.622-.824-.29-.266-.68-.5-1.171-.703-.492-.202-1.104-.35-1.838-.442.426-.105.858-.24 1.296-.408.438-.168.84-.382 1.207-.642.367-.26.66-.572.88-.937.218-.364.328-.795.328-1.292 0-.625-.151-1.125-.453-1.5-.302-.377-.684-.66-1.145-.85-.462-.192-.947-.319-1.456-.383-.509-.063-.977-.095-1.403-.095-.97 0-1.799.098-2.485.295-.687.197-1.35.422-1.989.676 0 .081.045.174.134.278.088.104.189.197.301.278.113.08.205.121.276.121.094 0 .23-.052.408-.156.178-.104.42-.226.728-.364.308-.14.698-.26 1.172-.365-.308.59-.619 1.255-.932 1.995-.314.74-.616 1.495-.906 2.264-.29.77-.553 1.5-.79 2.195-.237.694-.44 1.295-.612 1.804-.172.509-.293.873-.364 1.093-.083.231-.145.43-.187.599-.041.167-.062.303-.062.407 0 .266.13.492.39.677.261.185.569.277.924.277.272-.902.532-1.821.781-2.758s.503-1.845.763-2.724c.202 0 .415-.003.64-.008.224-.006.45-.009.674-.009.52 0 1.05.023 1.59.07.538.046 1.035.141 1.49.286.456.144.823.352 1.101.624s.417.633.417 1.084c0 .498-.177.975-.532 1.432-.355.456-.855.867-1.5 1.231-.645.365-1.406.654-2.282.868-.876.214-1.834.32-2.876.32-.615 0-1.033-.025-1.251-.077-.22-.052-.382-.078-.489-.078-.13 0-.195.057-.195.173.012.532.201.914.568 1.145.367.231.911.347 1.633.347zm1.19-8.067c.296-.96.61-1.894.94-2.802.332-.908.7-1.749 1.102-2.524h.07c.569 0 1.101.058 1.598.174.498.115.9.324 1.208.624.307.3.461.729.461 1.284 0 .59-.154 1.084-.461 1.483-.308.4-.72.723-1.234.972-.515.248-1.092.436-1.731.564-.64.127-1.29.202-1.953.225zm9.48 7.321c.64 0 1.264-.145 1.873-.434.61-.289 1.166-.694 1.67-1.214.502-.52.914-1.128 1.233-1.822l-.355-.277c-.296.555-.666 1.058-1.11 1.51-.443.45-.917.812-1.42 1.083-.503.272-1.003.408-1.5.408-.331 0-.592-.058-.781-.173-.19-.116-.326-.255-.409-.417-.082-.162-.133-.315-.15-.46-.018-.144-.027-.245-.027-.303 0-.116.003-.2.009-.252.006-.052.015-.1.026-.147.533-.058 1.063-.182 1.59-.373.526-.19 1.008-.437 1.446-.737.438-.301.787-.642 1.048-1.024.26-.382.39-.792.39-1.232 0-.462-.139-.772-.417-.928-.278-.156-.57-.234-.879-.234-.544 0-1.089.156-1.633.468-.544.313-1.042.72-1.491 1.223-.45.504-.808 1.041-1.074 1.614-.267.572-.4 1.113-.4 1.622 0 .601.204 1.102.613 1.5.408.4.99.599 1.748.599zm-.745-3.14c.13-.359.307-.723.532-1.093.225-.37.48-.708.764-1.015.284-.306.574-.555.87-.746.296-.19.58-.286.852-.286.106 0 .183.023.23.07.048.046.072.132.072.26 0 .323-.113.644-.338.962-.225.318-.512.61-.86.877-.35.266-.714.485-1.093.659-.378.173-.722.277-1.03.312zm6.356 3.175c.568 0 1.118-.16 1.65-.477.533-.318 1.027-.755 1.483-1.31.456-.555.837-1.174 1.145-1.856l-.248-.174c-.462.902-1.003 1.616-1.625 2.143-.621.526-1.228.789-1.82.789-.331 0-.574-.098-.728-.295-.153-.197-.23-.532-.23-1.006 0-.567.091-1.148.275-1.744.183-.595.4-1.176.648-1.743h.213c.497-.012 1.018-.035 1.562-.07.545-.034 1.142-.08 1.793-.138v-.573c-.438.046-.867.078-1.287.096-.42.017-.89.026-1.411.026h-.55c.33-.648.674-1.258 1.03-1.83.354-.573.653-1.073.896-1.501.242-.428.364-.758.364-.99 0-.161-.054-.285-.16-.372-.107-.087-.22-.13-.337-.13-.202 0-.432.13-.693.39-.26.26-.535.616-.825 1.067-.29.451-.58.963-.87 1.535-.29.573-.56 1.166-.808 1.779l-.382-.035c-.124-.012-.28-.029-.47-.052v.538c.106.046.216.078.328.095.113.017.21.038.293.06-.284.753-.518 1.481-.701 2.187-.184.705-.275 1.295-.275 1.77 0 .612.16 1.069.479 1.37.32.3.74.45 1.26.45zm4.491.017c.45 0 .873-.162 1.27-.486.396-.324.831-.763 1.304-1.318v.087c.024.347.154.67.391.971.237.3.598.451 1.083.451.45 0 .894-.136 1.332-.408.437-.271.855-.647 1.251-1.127.397-.48.737-1.032 1.021-1.657l-.337-.33c-.533.984-1.057 1.68-1.572 2.09-.514.411-.914.617-1.198.617-.19 0-.325-.067-.408-.2-.083-.133-.124-.274-.124-.425 0-.196.05-.402.15-.616.101-.214.22-.428.355-.641.137-.214.255-.411.356-.59.1-.18.15-.327.15-.443 0-.127-.059-.231-.177-.312-.118-.08-.246-.142-.382-.182-.136-.04-.228-.067-.275-.078-.06 0-.106.029-.142.087-.225.289-.491.639-.799 1.05-.308.41-.63.812-.967 1.205-.338.393-.672.72-1.004.98-.331.26-.633.39-.905.39s-.408-.185-.408-.555c0-.324.07-.688.213-1.093.142-.405.337-.818.586-1.24.248-.422.53-.81.843-1.162.314-.353.642-.64.985-.86.343-.219.68-.329 1.012-.329.308 0 .51.093.604.278.094.185.142.393.142.624 0 .116-.01.226-.027.33-.018.104-.038.208-.062.312.308.058.574.017.799-.121.225-.14.337-.365.337-.677 0-.416-.177-.752-.532-1.006-.355-.255-.787-.382-1.296-.382-.486 0-.97.116-1.456.347-.485.232-.941.535-1.367.911-.426.376-.805.795-1.136 1.258-.332.462-.592.93-.782 1.405-.189.474-.284.914-.284 1.318 0 .51.145.891.435 1.145.29.255.63.382 1.021.382z" transform="translate(-760 -174) translate(650 165)"/>
            </g>
        </g>
    </g>
</svg>
