<svg xmlns="http://www.w3.org/2000/svg" width="26" height="32" viewBox="0 0 26 32">
    <g fill="none" fill-rule="evenodd">
        <g fill="#E6D2B8">
            <path d="M43.779 1282.531c.433.237.993.588 1.486 1.318.245.375.515.972.735 1.731-.257-.384-.59-.75-.999-1.096-.991-.84-1.687-.992-2.444-.992-.429 0-.806.062-1.138.167.283.28.551.625.8 1.033l.137.234-.144-.136c-.285-.26-.559-.434-.856-.522l-.15-.036-.201-.033c-.067-.008-.132-.014-.197-.019l-.192-.007-.187.003h-.014c-.545.407-.904.915-1.17 1.292-.347.491-.737 1.243-1.167 2.256.144.106.279.207.403.303l-.14.016c.435-.045.755-.125.959-.238.204-.113.484-.4.843-.863.155.53.155.99 0 1.38-.096.242-.258.498-.487.769l-.14-.167c1.009 1.18 1.423 2.101 1.695 2.846l-.073-.168c1.13 2.514 1.176 4.9.136 7.157-.123.265-.244.519-.364.76l4.009 2.69c.116.247.116.441 0 .584-.115.142-1.515 1.793-4.199 4.953-.37-.347-.912-.347-1.624 0-.71.346-1.27.392-1.676.136l.525-1.855 2.129.466 4.123-3.7c-2.934.22-4.686.22-5.256 0-.082-.032-.163-.067-.242-.104-.11.088-.22.163-.33.225-.142.103-.288.2-.438.292l-3.716 7.186 1.214.842c.555-.025.9.022 1.031.14.17.15.31.367.422.653l-1.888.574-1.243-2.07.686-6.204c-.903.093-1.883.076-2.94-.05-.9-.107-1.698-.285-2.394-.533.213.436.243.969-.117 1.71l-3.962 5.588c1.456.565 2.457 1.001 3.004 1.31.333.188 1.27.013 1.98.38.303.156.668.579 1.094 1.268H28.66c-.006-.343-.089-.599-.251-.767-.163-.168-.488-.335-.978-.502l-3.339-1.203.628-4.081c.01-.065-.026-.127-.086-.15-.055-.021-.11-.043-.163-.066l-2.871 2.166c.038 2.142.01 3.205-.084 3.188-.006-.001.962-.018 1.62.54.162.14.387.408.677.81H21.7c-.127-.022-.23-.143-.31-.366-.08-.222-.233-.44-.461-.651.04-.568.04-1.101 0-1.6-.041-.498-.16-1.221-.356-2.168l1.846-3.62c-.05-.077-.1-.156-.147-.238-.403-.697-.396-1.602-.118-2.476H20v-2.104h3.452c.12-.117.246-.225.376-.324.93-.7 2.297-1.275 4.106-1.72.028-.006.059-.003.084.007 3.094-1.26 5.361-2.264 6.796-3.01.452-.236.93-.502 1.434-.8.648-.75.97-1.595.97-2.536 0-1.242-1.875-1.242-5.626 0l-1.494-1.206 3.968-3.405h.005l.054-.221c.307-1.231.688-2.134 1.144-2.71 1.217-1.537 2.293-2.025 3.572-2.106.755-.421 1.317-.528 1.423-.555.718-.182 2.306-.254 3.515.405z" transform="translate(-20 -1282)"/>
        </g>
    </g>
</svg>
