<svg xmlns="http://www.w3.org/2000/svg" width="59" height="59" viewBox="0 0 59 59">
  <g fill="none">
    <path fill="#6F6558" d="M57.5275995,36.5920577 C53.6270495,52.3764678 37.7811796,61.9826482 22.1342614,58.0464438 C6.49373165,54.11116 -3.02766218,38.1232643 0.874712976,22.3397749 C4.77343764,6.55352326 20.6193076,-3.0535779 36.2616626,0.881705819 C51.9076682,4.81698954 61.4281494,20.8067268 57.5275995,36.5920577 L57.5275995,36.5920577 Z"/>
    <g fill="#FFF" transform="translate(15 15)">
      <path d="M14.2633929,13.4598214 L23.5044643,22.8013393 C25.8725156,20.2723015 27.1685844,16.9241237 27.1205357,13.4598214 C27.103314,10.0075611 25.8161489,6.68238466 23.5044643,4.11830357 L14.2633929,13.4598214 Z"/>
      <polygon points="13.56 14.163 4.42 23.304 13.56 27.121 22.701 23.304"/>
      <polygon points="13.259 13.158 22.701 3.616 13.962 0 5.324 21.194"/>
      <path d="M-5.19033709e-07,13.4598214 C-0.000945664109,16.8855574 1.29036921,20.1855843 3.61607143,22.7008929 L12.7566964,0.602678571 L-5.19033709e-07,13.4598214 Z"/>
    </g>
  </g>
</svg>
