<svg xmlns="http://www.w3.org/2000/svg" width="221" height="60" viewBox="0 0 221 60">
    <defs>
        <linearGradient id="ctlfr93wla" x1="100%" x2="-1.405%" y1="50%" y2="50%">
            <stop offset="0%" stop-color="#B39C7D"/>
            <stop offset="6.546%" stop-color="#DEE3EB"/>
            <stop offset="49.327%" stop-color="#DEE3EB"/>
            <stop offset="83.94%" stop-color="#DEE3EB"/>
            <stop offset="100%" stop-color="#B39C7D"/>
        </linearGradient>
        <linearGradient id="1ebxv7lvub" x1="100%" x2="0%" y1="100%" y2="0%">
            <stop offset="0%" stop-color="#FAC88E"/>
            <stop offset="62.679%" stop-color="#ff9632"/>
            <stop offset="100%" stop-color="#E66D16"/>
        </linearGradient>
        <linearGradient id="kr0qox5rnc" x1="0%" x2="100%" y1="0%" y2="100%">
            <stop offset="0%" stop-color="#FAC88E"/>
            <stop offset="100%" stop-color="#FFE1CC"/>
        </linearGradient>
        <linearGradient id="f4b1f14abd" x1="0%" x2="100%" y1="0%" y2="100%">
            <stop offset="0%" stop-color="#E66D16"/>
            <stop offset="41.227%" stop-color="#ff9632"/>
            <stop offset="100%" stop-color="#FAC88E"/>
        </linearGradient>
        <linearGradient id="ytnci7nbre" x1="50%" x2="50%" y1="0%" y2="100%">
            <stop offset="0%" stop-color="#FAC88E"/>
            <stop offset="100%" stop-color="#ff9632"/>
        </linearGradient>
    </defs>
    <g fill="none" fill-rule="evenodd">
        <g>
            <g transform="translate(-210 -1049) translate(210 1049)">
                <path fill="url(#ctlfr93wla)" fill-rule="nonzero" d="M0 29.497c0 .687.023 1.363.07 2.027.015.22.207.387.427.371.22-.015.386-.206.37-.427C.824 30.823.8 30.165.8 29.498c0-.222-.18-.4-.4-.4-.22 0-.4.178-.4.4zm.67 6.056c.157.668.34 1.32.551 1.959.07.21.296.323.506.254.21-.07.323-.296.254-.505-.203-.616-.38-1.246-.532-1.89-.05-.216-.265-.35-.48-.3-.216.051-.35.267-.299.482zm2.199 5.702c.333.594.695 1.17 1.085 1.727.127.18.377.225.558.098.18-.127.224-.376.098-.557-.375-.536-.723-1.09-1.044-1.66-.108-.192-.352-.26-.545-.153-.192.109-.26.352-.152.545zm3.8 4.882c.486.465.998.91 1.535 1.339.172.137.424.109.562-.064.137-.173.109-.424-.064-.562-.518-.413-1.011-.843-1.48-1.291-.16-.153-.413-.147-.565.013-.153.16-.147.412.012.565zm4.86 3.57c.58.327 1.18.638 1.801.932.2.094.438.01.533-.19.095-.2.01-.439-.19-.533-.604-.286-1.188-.588-1.751-.906-.193-.108-.437-.04-.545.152-.109.193-.04.437.152.545zm5.612 2.444c.63.207 1.276.4 1.937.579.213.058.433-.069.49-.282.058-.213-.068-.433-.281-.49-.648-.175-1.28-.364-1.896-.567-.21-.069-.436.046-.505.256-.069.21.045.435.255.504zm5.939 1.456c.652.112 1.317.212 1.994.3.219.03.42-.125.448-.344.029-.219-.126-.42-.345-.449-.666-.087-1.32-.185-1.961-.296-.218-.037-.425.109-.462.327-.038.217.108.424.326.462zm5.88.67c.66.041 1.33.072 2.01.092.221.007.406-.167.412-.388.007-.22-.167-.405-.388-.412-.67-.02-1.333-.05-1.985-.09-.22-.014-.41.154-.424.375-.013.22.155.41.375.423zm6.048.097c.662-.017 1.332-.043 2.009-.078.22-.011.39-.199.379-.42-.012-.22-.2-.39-.42-.379-.67.035-1.334.06-1.989.078-.22.005-.395.189-.39.41.007.22.19.395.411.39zm6.033-.378l.975-.1 1.027-.115c.22-.026.377-.225.35-.444-.022-.192-.177-.336-.363-.352l-.1.004-.024.003c-.653.076-1.3.146-1.942.208-.22.021-.38.217-.36.437.022.22.217.38.437.36zm5.98-.862c.636-.128 1.29-.27 1.966-.425.215-.049.35-.264.3-.479-.05-.215-.264-.35-.48-.3-.667.153-1.315.293-1.943.42-.217.043-.357.253-.314.47.044.217.255.357.471.314zm5.87-1.414c.63-.173 1.273-.356 1.932-.548.212-.062.333-.284.271-.496-.061-.213-.284-.334-.496-.272l-1.289.37-.63.174c-.213.059-.338.279-.28.492.059.213.279.338.492.28zm5.762-1.724l1.261-.41.643-.211c.21-.07.323-.296.253-.506-.07-.21-.296-.323-.505-.253l-1.272.417-.624.201c-.21.068-.327.293-.26.503.068.21.293.327.504.26zm5.703-1.921l1.251-.444.636-.227c.208-.075.316-.304.24-.512-.074-.208-.303-.316-.51-.241l-1.262.45-.62.219c-.208.073-.318.302-.245.51.074.208.302.318.51.245zM70 46.025c.616-.23 1.24-.465 1.874-.706.206-.078.31-.309.232-.516-.078-.206-.31-.31-.516-.231-.632.24-1.256.474-1.87.704-.207.077-.312.308-.235.515.078.207.308.312.515.234zm5.605-2.142l1.865-.731c.205-.081.306-.314.225-.52-.08-.205-.313-.306-.519-.224l-1.862.73c-.206.08-.307.312-.227.518.08.206.312.307.518.227zm5.582-2.211l1.856-.75c.205-.083.304-.316.22-.52-.082-.205-.315-.304-.52-.221l-1.855.748c-.205.083-.304.316-.222.52.083.206.316.305.52.223zm5.568-2.264l1.85-.762c.204-.084.3-.318.216-.522-.084-.204-.318-.302-.522-.217l-1.847.76c-.205.085-.302.318-.219.523.084.204.318.302.522.218zm5.542-2.294l1.847-.772c.204-.085.3-.32.215-.523-.085-.204-.32-.3-.523-.215l-1.847.771c-.204.085-.3.32-.215.524.085.203.32.3.523.215zm5.545-2.323l1.843-.776c.204-.086.3-.32.213-.524-.086-.204-.32-.3-.524-.214l-1.842.777c-.204.085-.3.32-.214.523.086.204.32.3.524.214zm5.52-2.329l1.84-.778c.203-.086.298-.32.212-.524-.086-.204-.32-.299-.524-.213l-1.84.778c-.204.087-.299.321-.213.525.086.203.32.298.524.212zm5.524-2.336l1.843-.78c.203-.086.299-.32.213-.524-.086-.204-.321-.299-.525-.213l-1.843.78c-.204.086-.299.32-.213.524.086.203.321.299.525.213zm5.524-2.334l1.842-.775c.204-.086.3-.32.214-.524-.086-.204-.32-.3-.524-.214l-1.842.776c-.204.086-.3.32-.214.524.086.204.32.299.524.213zm5.53-2.323l1.847-.77c.203-.085.3-.32.215-.523-.085-.204-.32-.3-.523-.216l-1.847.771c-.204.086-.3.32-.215.524.085.204.32.3.524.214zm5.542-2.304l1.848-.762c.204-.084.302-.317.218-.522-.084-.204-.318-.301-.522-.218l-1.85.763c-.204.084-.301.318-.217.522.085.204.319.302.523.217zm5.555-2.276l1.853-.75c.205-.083.304-.316.222-.52-.083-.206-.316-.305-.521-.222l-1.855.75c-.204.083-.303.317-.22.521.083.205.317.304.521.22zm5.562-2.234l1.858-.734c.206-.08.307-.313.226-.519-.08-.205-.313-.306-.518-.226-.614.241-1.234.486-1.86.735-.206.082-.307.314-.225.52.081.205.314.305.52.224zm5.583-2.183l1.867-.714c.206-.078.31-.309.231-.516-.078-.206-.31-.31-.516-.231-.616.234-1.239.472-1.869.714-.206.08-.309.311-.23.517.08.206.311.31.517.23zm5.613-2.118c.633-.233 1.259-.462 1.877-.687.208-.075.315-.305.24-.512-.076-.208-.305-.315-.513-.24l-1.881.689c-.207.077-.313.307-.237.514.077.207.307.313.514.236zm5.64-2.028c.637-.223 1.267-.44 1.888-.653.21-.071.32-.299.25-.508-.072-.209-.3-.32-.508-.249-.624.213-1.255.431-1.894.654-.208.073-.318.301-.245.51.072.208.3.318.51.246zm5.676-1.914c.643-.208 1.277-.41 1.902-.606.211-.066.329-.29.262-.501-.066-.211-.29-.328-.5-.262-.628.196-1.265.399-1.91.608-.21.068-.325.293-.257.504.068.21.293.325.503.257zm5.73-1.76c.65-.189 1.29-.37 1.919-.543.213-.058.338-.278.28-.491-.06-.213-.28-.339-.493-.28-.632.174-1.275.356-1.93.545-.211.061-.334.283-.272.495.061.212.283.335.495.273zm5.771-1.54c.66-.16 1.307-.31 1.941-.45.216-.047.352-.26.304-.477-.047-.215-.26-.352-.476-.304-.64.141-1.291.292-1.956.453-.215.052-.347.268-.295.483.051.214.268.346.482.295zm5.851-1.221c.663-.116 1.318-.225 1.966-.327.218-.035.367-.24.333-.458-.035-.218-.24-.367-.458-.332-.652.103-1.311.212-1.978.329-.218.038-.364.245-.326.463.038.217.246.363.463.325zm5.914-.878c.67-.08 1.329-.152 1.98-.217.22-.022.38-.217.358-.437-.022-.22-.217-.38-.437-.359-.657.065-1.322.138-1.996.219-.22.026-.376.225-.35.445.027.22.226.376.445.35zm5.953-.518c.673-.035 1.335-.06 1.986-.075.221-.006.396-.189.39-.41-.005-.22-.188-.395-.409-.39-.659.016-1.328.041-2.008.076-.22.011-.39.2-.38.42.012.22.2.39.42.379zm5.966-.05c.674.026 1.334.064 1.98.113.221.017.413-.148.43-.369.017-.22-.149-.412-.369-.429-.657-.05-1.327-.088-2.01-.114-.22-.009-.407.163-.415.384-.009.22.163.406.384.415zm5.938.58c.666.11 1.314.233 1.945.37.216.047.429-.09.476-.305.047-.216-.09-.43-.306-.476-.645-.14-1.306-.267-1.985-.378-.218-.036-.424.112-.46.33-.035.218.112.424.33.46zm5.736 1.433c.633.222 1.245.461 1.835.718.202.088.438-.005.526-.207.088-.203-.005-.438-.207-.527-.608-.264-1.238-.51-1.89-.739-.208-.073-.436.037-.51.245-.072.209.038.437.246.51zm5.32 2.596c.553.367 1.08.754 1.58 1.16.172.14.423.114.563-.057.14-.172.113-.424-.058-.563-.52-.424-1.069-.826-1.645-1.207-.184-.122-.432-.071-.554.113-.122.184-.071.433.113.554zm4.358 3.96c.407.51.785 1.041 1.134 1.593.119.187.366.242.552.124.187-.118.242-.365.124-.552-.364-.576-.76-1.131-1.185-1.664-.137-.173-.389-.202-.562-.064-.172.138-.2.39-.063.562zm2.877 5.115c.227.606.428 1.23.602 1.869.058.213.278.339.49.28.214-.058.34-.277.282-.49-.181-.664-.389-1.31-.625-1.94-.077-.206-.308-.311-.515-.234-.207.078-.311.308-.234.515zm1.315 5.715c.068.644.115 1.3.14 1.967.008.22.194.393.414.385.221-.008.393-.194.385-.415-.025-.685-.073-1.36-.144-2.022-.023-.22-.22-.379-.44-.355-.22.023-.378.22-.355.44z"/>
                <path fill="#B39C7D" fill-rule="nonzero" d="M219.9 26.706c0 .646-.046 1.287-.139 1.922-.04.273.15.527.423.567.273.04.527-.15.567-.423.1-.682.149-1.371.149-2.066 0-.276-.224-.5-.5-.5s-.5.224-.5.5zm-1.246 5.652c-.264.578-.57 1.148-.915 1.708-.145.235-.072.543.163.688.235.145.543.072.688-.163.368-.595.692-1.201.974-1.818.114-.251.003-.548-.248-.663-.251-.114-.548-.003-.662.248zm-3.327 4.79c-.442.461-.914.911-1.417 1.35-.208.182-.229.498-.047.706.182.208.497.229.705.047.524-.458 1.018-.928 1.48-1.41.192-.198.185-.515-.014-.706-.199-.192-.515-.185-.707.014zm-4.533 3.689c-.54.35-1.102.69-1.685 1.02-.24.137-.325.442-.189.682.136.24.441.325.681.189.6-.34 1.18-.69 1.737-1.052.232-.15.298-.46.148-.692-.15-.231-.46-.297-.692-.147zm-5.25 2.794c-.594.259-1.204.51-1.83.75-.257.099-.386.388-.287.646.1.258.389.386.647.287.639-.246 1.262-.502 1.87-.767.253-.11.369-.405.259-.658-.111-.253-.406-.369-.659-.258zm-5.624 2.037c-.626.185-1.263.363-1.911.53-.268.07-.428.343-.359.61.07.268.343.428.61.359.66-.171 1.308-.352 1.944-.54.265-.08.416-.358.337-.622-.078-.265-.357-.416-.621-.337zm-5.829 1.415c-.643.124-1.294.24-1.954.349-.273.045-.457.302-.412.574.044.273.301.457.574.413.67-.11 1.33-.228 1.982-.354.271-.053.449-.315.396-.586-.052-.271-.315-.449-.586-.396zm-5.792.877c-.652.074-1.312.14-1.978.198-.275.024-.478.267-.454.542.024.275.267.478.542.454.674-.06 1.341-.126 2.002-.2.274-.03.472-.278.441-.553-.03-.274-.278-.472-.553-.44zm-5.938.455c-.658.028-1.32.049-1.989.063-.276.006-.495.234-.489.51.006.277.235.496.51.49.676-.015 1.346-.036 2.01-.064.276-.012.49-.245.478-.521-.011-.276-.245-.49-.52-.478zm-5.987.067c-.659-.013-1.322-.032-1.99-.057-.275-.01-.507.205-.518.48-.01.277.205.509.48.52.674.025 1.344.044 2.01.057.275.005.504-.215.509-.49.005-.277-.215-.505-.49-.51zm-5.98-.281c-.659-.05-1.32-.104-1.985-.165-.275-.025-.518.177-.544.452-.025.275.178.519.453.544.67.061 1.338.117 2.001.166.276.02.516-.186.536-.462.02-.275-.186-.515-.462-.535zm-5.957-.596c-.656-.082-1.314-.17-1.975-.263-.273-.039-.526.152-.565.425-.038.274.152.526.425.565.666.094 1.33.183 1.99.265.275.035.525-.16.559-.434.034-.274-.16-.524-.434-.558zm-5.92-.879c-.652-.11-1.307-.227-1.964-.348-.271-.05-.532.13-.582.401-.05.272.13.533.401.583.662.121 1.32.238 1.977.35.273.046.53-.137.577-.409.047-.272-.137-.53-.409-.577zm-5.878-1.12c-.648-.135-1.298-.276-1.951-.421-.27-.06-.537.11-.597.38-.06.269.11.536.38.596.657.146 1.311.287 1.963.424.27.057.535-.116.592-.386.057-.27-.116-.536-.387-.592zm-5.837-1.331c-.642-.158-1.288-.32-1.936-.487-.268-.069-.54.093-.609.36-.069.268.092.54.36.609.652.167 1.3.33 1.947.489.268.066.539-.098.605-.366.065-.269-.098-.54-.367-.605zm-5.798-1.519c-.637-.177-1.278-.358-1.922-.543-.265-.076-.542.077-.618.342-.077.266.077.543.342.62.647.185 1.29.367 1.93.545.267.073.542-.082.616-.349.074-.266-.082-.541-.348-.615zm-5.742-1.676c-.632-.193-1.266-.39-1.905-.59-.263-.083-.544.063-.627.327-.082.263.064.544.327.627.641.2 1.279.398 1.912.592.265.08.544-.068.625-.332.08-.264-.068-.543-.332-.624zm-5.708-1.816c-.628-.207-1.259-.418-1.894-.632-.262-.088-.546.052-.634.314-.088.261.052.545.314.633.637.215 1.27.427 1.9.635.262.086.545-.056.632-.319.086-.262-.056-.544-.318-.631zm-5.676-1.934c-.624-.219-1.251-.441-1.884-.667-.26-.093-.546.043-.64.303-.092.26.044.546.304.639l1.889.669c.26.09.546-.046.637-.307.091-.26-.046-.546-.306-.637zm-5.646-2.032c-.618-.227-1.242-.458-1.871-.693-.26-.097-.547.035-.644.293-.096.259.035.547.294.644l1.876.695c.259.095.546-.037.642-.297.095-.259-.038-.546-.297-.642zm-5.599-2.101l-1.866-.716c-.258-.1-.547.029-.647.286-.099.258.03.547.287.647l1.87.717c.257.099.546-.03.645-.289.098-.257-.03-.546-.289-.645zm-5.591-2.165l-1.86-.732c-.257-.101-.547.025-.649.282-.101.257.025.547.282.648l1.862.733c.257.1.547-.026.648-.283.1-.257-.026-.547-.283-.648zm-5.579-2.207l-1.858-.742c-.256-.102-.547.023-.65.28-.102.256.023.546.28.649l1.858.742c.257.102.548-.023.65-.28.102-.256-.023-.547-.28-.649zm-5.573-2.23l-1.856-.744c-.256-.103-.547.021-.65.278-.103.256.022.547.278.65l1.856.744c.256.103.547-.021.65-.278.103-.256-.021-.547-.278-.65zm-5.574-2.234l-1.859-.741c-.256-.103-.547.022-.65.279-.101.257.024.547.28.65l1.858.74c.257.103.548-.021.65-.278.103-.256-.022-.547-.279-.65zm-5.574-2.214l-1.864-.732c-.257-.1-.547.027-.647.284-.1.257.026.547.283.648l1.861.73c.257.101.547-.025.649-.282.1-.257-.025-.547-.282-.648zm-5.598-2.18l-1.87-.713c-.259-.098-.547.032-.645.29-.098.259.032.547.29.645l1.866.712c.258.1.547-.03.646-.287.1-.258-.03-.547-.287-.646zm-5.625-2.117l-1.881-.687c-.26-.094-.547.04-.64.3-.095.26.04.547.3.64l1.875.686c.26.095.547-.038.642-.297.095-.259-.037-.546-.296-.642zm-5.666-2.029c-.64-.222-1.27-.438-1.895-.65-.262-.088-.546.052-.634.313-.089.262.051.546.313.634.622.211 1.251.427 1.888.648.26.09.546-.048.636-.309.09-.26-.047-.545-.308-.636zm-5.69-1.9l-.22-.07c-.565-.18-1.132-.354-1.7-.523-.264-.078-.542.072-.62.337-.08.265.071.543.336.622l.84.254 1.06.333c.262.084.544-.061.628-.324.084-.263-.061-.544-.324-.628zm-5.795-1.657c-.652-.164-1.304-.321-1.958-.47-.269-.063-.537.106-.599.375-.061.269.107.537.376.599.646.148 1.292.303 1.937.466.267.067.54-.095.607-.363.067-.268-.095-.54-.363-.607zm-5.902-1.286c-.66-.122-1.32-.236-1.98-.343-.273-.044-.53.141-.574.414-.044.272.141.53.414.573.652.106 1.305.219 1.958.34.272.05.533-.13.583-.402.05-.271-.13-.532-.401-.582zm-5.987-.9c-.668-.078-1.335-.148-2-.21-.275-.026-.518.176-.544.451-.026.275.176.519.451.545.658.061 1.317.13 1.978.207.274.032.522-.165.554-.439.032-.274-.164-.522-.439-.554zm-5.999-.49c-.674-.031-1.344-.054-2.011-.069-.276-.006-.505.213-.511.49-.006.275.213.504.489.51.659.014 1.321.037 1.987.068.276.013.51-.2.522-.476.013-.276-.2-.51-.476-.523zm-6.058-.054c-.676.02-1.347.05-2.012.087-.276.016-.487.252-.471.528.016.276.252.486.528.47.656-.037 1.318-.066 1.985-.085.276-.009.493-.24.485-.515-.009-.276-.24-.493-.515-.485zm-6.006.43c-.675.079-1.342.167-2 .265-.273.04-.462.295-.421.568.04.273.295.461.568.42.647-.095 1.304-.182 1.968-.259.274-.032.47-.28.439-.554-.032-.275-.28-.471-.554-.44zm-5.98.997c-.665.148-1.32.306-1.962.476-.267.07-.426.344-.356.61.07.268.344.427.611.357.63-.166 1.27-.322 1.924-.467.27-.06.44-.327.38-.596-.06-.27-.327-.44-.596-.38zm-5.846 1.687c-.646.236-1.274.484-1.884.744-.255.108-.373.402-.264.656.108.254.402.372.656.264.593-.253 1.205-.495 1.835-.724.26-.095.393-.382.298-.641-.094-.26-.381-.393-.64-.299zm-5.555 2.586c-.599.353-1.17.72-1.716 1.102-.226.158-.28.47-.122.696.158.226.47.281.696.123.523-.366 1.073-.72 1.65-1.06.237-.14.316-.446.176-.684-.14-.238-.447-.317-.684-.177zM4.22 18.96c-.487.504-.935 1.025-1.343 1.562-.167.22-.124.534.096.7.22.168.534.125.7-.095.384-.506.806-.996 1.266-1.472.192-.199.186-.516-.012-.707-.2-.192-.516-.187-.707.012zM.839 24.142c-.25.647-.451 1.309-.602 1.986-.06.27.11.537.38.597.269.06.536-.11.596-.38.14-.628.326-1.242.558-1.842.1-.258-.028-.547-.286-.647-.257-.1-.547.029-.646.286z"/>
                <circle cx="13.9" cy="12.5" r="6.5" fill="url(#1ebxv7lvub)"/>
                <circle cx="69.4" cy="44" r="8" fill="url(#kr0qox5rnc)"/>
                <circle cx="187.4" cy="48" r="12" fill="url(#f4b1f14abd)"/>
                <circle cx="162.4" cy="8" r="4" fill="url(#kr0qox5rnc)"/>
                <circle cx="182.4" cy="4" r="4" fill="url(#kr0qox5rnc)"/>
                <circle cx="214.4" cy="38" r="4" fill="url(#ytnci7nbre)"/>
                <circle cx="133.4" cy="19" r="3" fill="url(#kr0qox5rnc)"/>
                <circle cx="4.4" cy="43" r="4" fill="url(#ytnci7nbre)"/>
                <circle cx="36.4" cy="10" r="4" fill="url(#ytnci7nbre)"/>
            </g>
        </g>
    </g>
</svg>
