<svg xmlns="http://www.w3.org/2000/svg" width="282" height="282" viewBox="0 0 282 282">
    <defs>
        <filter id="isickyu34a" width="230%" height="230%" x="-65%" y="-65%" filterUnits="objectBoundingBox">
            <feOffset dy="10" in="SourceAlpha" result="shadowOffsetOuter1"/>
            <feGaussianBlur in="shadowOffsetOuter1" result="shadowBlurOuter1" stdDeviation="5"/>
            <feColorMatrix in="shadowBlurOuter1" result="shadowMatrixOuter1" values="0 0 0 0 0 0 0 0 0 0 0 0 0 0 0 0 0 0 0.1 0"/>
            <feMerge>
                <feMergeNode in="shadowMatrixOuter1"/>
                <feMergeNode in="SourceGraphic"/>
            </feMerge>
        </filter>
    </defs>
    <g fill="none" fill-rule="evenodd">
        <g>
            <g transform="translate(-579 -1647) translate(580 1648)">
                <circle cx="140" cy="140" r="140" stroke="#ff9632" opacity=".1"/>
                <circle cx="140" cy="140" r="120" stroke="#ff9632" opacity=".3"/>
                <circle cx="140" cy="140" r="90" stroke="#ff9632" opacity=".5"/>
                <circle cx="140" cy="140" r="60" stroke="#ff9632"/>
                <g filter="url(#isickyu34a)" transform="translate(110 110)">
                    <rect width="60" height="60" fill="#FFF" rx="30"/>
                    <g fill="#ff9632" fill-rule="nonzero">
                        <path d="M7.65 10.8L14.986 18.15 40.5 18.15 14.55 3.825zM7.125 11.325L.3 18.15 13.95 18.15zM6.9 10.575L13.95 3.45 7.65 0 .975 16.575z" transform="translate(9.75 18.75)"/>
                    </g>
                </g>
                <circle cx="108" cy="56" r="4" fill="#FFD5B6"/>
                <circle cx="221" cy="102" r="4" fill="#FFD5B6"/>
                <circle cx="181" cy="220" r="4" fill="#FFD5B6"/>
                <circle cx="52" cy="159" r="4" fill="#FFD5B6"/>
            </g>
        </g>
    </g>
</svg>
