<svg xmlns="http://www.w3.org/2000/svg" xmlns:xlink="http://www.w3.org/1999/xlink" width="400" height="104" viewBox="0 0 400 104">
    <defs>
        <linearGradient id="i2l6fzn3aa" x1="50%" x2="50%" y1="0%" y2="100%">
            <stop offset="0%" stop-color="#FAC88E"/>
            <stop offset="100%" stop-color="#ff9632"/>
        </linearGradient>
        <path id="zm8idqwb7b" d="M16.398 0L53.333 19.41 0 19.41z"/>
    </defs>
    <g fill="none" fill-rule="evenodd">
        <g>
            <g transform="translate(-204 -2136) translate(202 2135)">
                <circle cx="24.025" cy="25.537" r="20" fill="url(#i2l6fzn3aa)" transform="scale(1 -1) rotate(-10 -267.863 0)"/>
                <circle cx="97.236" cy="90.429" r="14" fill="url(#i2l6fzn3aa)" transform="scale(1 -1) rotate(-10 -936.376 0)"/>
                <circle cx="172.862" cy="57.557" r="10" fill="url(#i2l6fzn3aa)" transform="scale(1 -1) rotate(-10 -485.014 0)"/>
                <circle cx="205.867" cy="59.631" r="4" fill="url(#i2l6fzn3aa)" transform="scale(1 -1) rotate(-10 -475.723 0)"/>
                <circle cx="209.928" cy="99.949" r="5" fill="url(#i2l6fzn3aa)" transform="scale(1 -1) rotate(-10 -932.495 0)"/>
                <circle cx="132.059" cy="6" r="5" fill="url(#i2l6fzn3aa)" transform="scale(1 -1) rotate(-10 63.479 0)"/>
                <circle cx="267.712" cy="55.542" r="5" fill="url(#i2l6fzn3aa)" transform="scale(1 -1) rotate(-10 -367.133 0)"/>
                <circle cx="317.786" cy="73.985" r="2" fill="url(#i2l6fzn3aa)" transform="scale(1 -1) rotate(-10 -527.863 0)"/>
                <circle cx="287.786" cy="65.985" r="2" fill="url(#i2l6fzn3aa)" transform="scale(1 -1) rotate(-10 -466.423 0)"/>
                <g transform="translate(348 65.544)">
                    <mask id="g5zoiw95uc" fill="#fff">
                        <use xlink:href="#zm8idqwb7b"/>
                    </mask>
                    <use fill="#ff9632" transform="matrix(-1 0 0 1 53.333 0)" xlink:href="#zm8idqwb7b"/>
                    <path fill="#FFF" d="M42.549 6.12L46.689 7.709 41.402 10.667 34.306 10.667z" mask="url(#g5zoiw95uc)"/>
                    <circle cx="29.497" cy="14.219" r="1" fill="#FFF" mask="url(#g5zoiw95uc)"/>
                    <circle cx="24.601" cy="14.219" r="1" fill="#FFF" mask="url(#g5zoiw95uc)"/>
                    <circle cx="19.705" cy="14.219" r="1" fill="#FFF" mask="url(#g5zoiw95uc)"/>
                </g>
                <path fill="#ff9632" d="M2 82.544H382V84.544H2z"/>
            </g>
        </g>
    </g>
</svg>
