<svg xmlns="http://www.w3.org/2000/svg" width="800" height="400" viewBox="0 0 800 400">
    <g fill="none" fill-rule="evenodd">
        <g>
            <g>
                <path fill="#FAFBFC" d="M0 0H800V400H0z"/>
                <g fill-rule="nonzero">
                    <path fill="#4D463D" d="M103.375 37.745V24.218h4.014l7.593 13.527h6.327L112.015 21.6v-.087l8.77-14.75h-6.109l-7.287 12.612h-4.014V6.764h-5.63v30.981h5.63zm40.538 0v-4.843h-13.397V6.764h-5.629v30.981h19.026zm8.509 0l2.618-7.941h10.865l2.619 7.941h5.803L163.418 6.764h-5.89l-10.91 30.981h5.804zm12.087-12.523h-8.116l2.749-8.291c.61-1.746 1.309-4.8 1.309-4.8h.087s.655 3.054 1.222 4.8l2.75 8.29zm22.604 12.523v-12.96L197.41 6.764h-6.371l-4.8 9.12c-1.004 1.92-1.876 4.145-1.876 4.145h-.088c-.043.044-.872-2.225-1.876-4.145l-4.844-9.12h-6.37l10.298 18.021v12.96h5.629zm20.203.524c5.28 0 8.51-2.967 8.51-6.676 0-7.157-10.822-6.764-10.822-9.906 0-1.396 1.396-2.007 2.836-2.007 3.404 0 5.455 1.92 5.455 1.92l2.05-4.102s-2.443-2.53-7.461-2.53c-4.8 0-8.51 2.4-8.51 6.545 0 7.156 10.822 6.72 10.822 10.036 0 1.31-1.352 2.007-2.923 2.007-3.622 0-6.066-2.443-6.066-2.443l-2.53 3.883s3.098 3.273 8.64 3.273zm22.43-.524l3.752-12.698c.35-1.178.524-2.4.524-2.4h.087s.218 1.222.567 2.4l3.753 12.698h6.153l6.763-22.254h-5.76l-3.883 14.618c-.306 1.178-.48 2.356-.48 2.356h-.087s-.175-1.178-.48-2.356l-4.102-14.574h-4.931l-4.102 14.574c-.305 1.178-.524 2.356-.524 2.356h-.087s-.13-1.178-.436-2.356l-3.884-14.618h-5.847l6.807 22.254h6.196zm29.946.524c5.062 0 6.807-3.927 6.764-3.927h.087s-.087.698-.087 1.57v1.833h5.105v-13.92c0-5.629-3.404-8.858-9.25-8.858-5.28 0-8.728 2.75-8.728 2.75l2.094 3.97s2.924-2.138 6.11-2.138c2.443 0 4.276 1.004 4.276 3.927v.306h-.742c-3.622 0-13.178.48-13.178 7.549 0 4.45 3.578 6.938 7.549 6.938zm1.396-4.32c-2.269 0-3.36-1.396-3.36-2.88 0-3.098 4.582-3.49 7.418-3.49h.96v.523c0 2.705-2.094 5.847-5.018 5.847zm19.593 12.524v-9.338c0-1.135-.087-1.92-.087-1.92h.087s1.964 3.054 6.37 3.054c5.848 0 10.168-4.582 10.168-11.65 0-6.895-3.84-11.652-9.862-11.652-5.236 0-7.156 3.666-7.156 3.666h-.087s.087-.698.087-1.528v-1.614h-5.062v30.982h5.542zm5.367-12.873c-3.665 0-5.542-3.404-5.542-6.85 0-4.932 2.706-7.026 5.586-7.026 3.273 0 5.542 2.749 5.542 6.981 0 4.408-2.531 6.895-5.586 6.895z" transform="translate(251 144)"/>
                    <g fill="#ff9632">
                        <path d="M16.023 22.621L31.388 38.016 84.829 38.016 30.476 8.012zM14.924 23.721L.628 38.016 29.219 38.016zM14.452 22.15L29.219 7.226 16.023 0 2.042 34.717z" transform="translate(251 144)"/>
                    </g>
                </g>
                <path fill="#ff9632" d="M0 222H800V230H0z"/>
            </g>
        </g>
    </g>
</svg>
